<svg width="50" height="50" viewBox="0 0 50 50" fill="none" xmlns="http://www.w3.org/2000/svg">
<path d="M48.8728 16.6612C48.8728 14.7352 47.3056 13.1681 45.3796 13.1681C44.4471 13.1681 43.5691 13.5316 42.91 14.1916L40.6274 16.4741L38.0915 19.01V11.5663C40.6998 11.1905 42.7121 8.94722 42.7121 6.2373C42.7121 3.26476 40.294 0.84668 37.3214 0.84668H6.51786C3.54531 0.84668 1.12723 3.26476 1.12723 6.2373V44.7418C1.12723 45.1669 1.47223 45.5119 1.89732 45.5119H5.74777V47.8221C5.74777 48.2472 6.09276 48.5922 6.51786 48.5922H37.3214C37.7465 48.5922 38.0915 48.2472 38.0915 47.8221V28.8887L45.5668 21.4134L46.3576 20.6226C45.9588 22.6094 44.9861 24.4361 43.5214 25.9015L39.8581 29.5649L40.947 30.6538L44.6104 26.9904C46.7959 24.8049 48.018 21.9186 48.0896 18.8391C48.5879 18.2214 48.8728 17.4667 48.8728 16.6612ZM43.9989 15.2804C44.3677 14.9116 44.8583 14.7083 45.3796 14.7083C46.4562 14.7083 47.3326 15.5846 47.3326 16.6612C47.3326 17.1826 47.1293 17.6731 46.7604 18.042L45.0223 19.7801L42.2608 17.0186L43.9989 15.2804ZM41.1719 18.1074L42.0082 18.9438L32.3159 28.6361L31.4795 27.7998L41.1719 18.1074ZM22.8569 38.4294L24.4409 35.2604L26.7804 37.5999L23.6115 39.184L22.8569 38.4294ZM25.3188 33.9605L30.3906 28.8887L33.1521 31.6502L28.0804 36.7221L25.3188 33.9605ZM37.3214 2.38686C39.4446 2.38686 41.1719 4.11417 41.1719 6.2373C41.1719 8.36043 39.4446 10.0877 37.3214 10.0877H10.2836C11.2847 9.10822 11.9085 7.74514 11.9085 6.2373C11.9085 4.72947 11.2847 3.36641 10.2836 2.38686H37.3214ZM7.28793 10.01V7.7775C7.28793 7.35314 7.63371 7.00739 8.058 7.00739H10.2905C9.98328 8.51372 8.79421 9.70272 7.28793 10.01ZM2.66741 43.9716V6.2373C2.66741 4.11417 4.39472 2.38686 6.51786 2.38686C8.37686 2.38686 9.93243 3.71218 10.2905 5.46722H8.058C6.78431 5.46722 5.74777 6.50375 5.74777 7.7775V43.9716H2.66741ZM36.5514 47.052H7.28793V11.6279H36.5514V20.5502L33.1521 23.9494H10.3683V25.4895H31.612L30.0718 27.0297H10.3683V28.5699H28.5316L23.6854 33.4161C23.6254 33.4761 23.5861 33.5477 23.5499 33.6201L23.5414 33.6155L21.2312 38.2361C21.0834 38.5325 21.1411 38.8906 21.3759 39.1247L21.6009 39.3511L19.835 41.1169L20.9239 42.2059L22.6897 40.4401L22.9154 40.6657C23.0632 40.8136 23.2604 40.8913 23.4599 40.8913C23.5761 40.8913 23.6947 40.8644 23.8041 40.8104L28.4246 38.5002L28.42 38.4917C28.4924 38.4555 28.564 38.4163 28.6241 38.3562L34.7848 32.1955L36.5514 30.4289V47.052ZM34.2411 30.5614L33.4048 29.725L43.0971 20.0327L43.9334 20.869L34.2411 30.5614Z" fill="#2D2D2D"/>
<path d="M10.3683 14.7085H33.471V16.2486H10.3683V14.7085Z" fill="#2D2D2D"/>
<path d="M10.3683 17.7886H33.471V19.3287H10.3683V17.7886Z" fill="#2D2D2D"/>
<path d="M10.3683 20.8691H33.471V22.4093H10.3683V20.8691Z" fill="#2D2D2D"/>
<path d="M10.3683 39.3511H18.8393V40.8912H10.3683V39.3511Z" fill="#2D2D2D"/>
<path d="M10.3683 42.4316H33.471V43.9718H10.3683V42.4316Z" fill="#2D2D2D"/>
</svg>
